<svg data-name="Layer 1" xmlns="http://www.w3.org/2000/svg" width="744.113" height="138.245" viewBox="0 0 558.085 103.684"><title>Winter in Switzerland</title><path fill="#fff" opacity=".66" d="M403.391 8.028h154.693v1H403.391zM8.29 8.028h154.693v1H8.29z"/><path d="M180.618 0h2.08l-.26 9.386q-.08 1.378-.117 2.756t-.143 2.782h.104q.597-1.403 1.221-2.782.624-1.377 1.197-2.756L188.964 0h1.845l.235 9.386q.026 1.352.025 2.743v2.795h.105q.52-1.403 1.079-2.782.56-1.377 1.079-2.756L197.024 0h2.002l-7.02 17.056h-2.574L189.25 6.63q0-.936.013-1.963t.065-2.04h-.104q-.364 1.013-.794 2-.428.99-.871 2.003l-4.653 10.426h-2.522zM214.886 0h2.028l-3.406 17.056h-2.029zM234.438 0h2.028l3.9 10.92 1.091 3.562h.104q.156-1.273.326-2.69.167-1.417.455-2.744L244.135 0h1.95l-3.405 17.056h-2.002L236.83 6.162l-1.118-3.666h-.104q-.156 1.326-.351 2.704t-.455 2.678l-1.82 9.178h-1.95zM266.573 1.742h-4.94L261.971 0h11.934l-.338 1.742h-4.965l-3.043 15.314h-2.027zM289.792 0h9.412l-.338 1.69h-7.41l-1.092 5.538h6.266l-.364 1.717h-6.214l-1.327 6.395h7.645l-.365 1.716h-9.62zM320.55 0a9.88 9.88 0 0 1 2.17.22 4.838 4.838 0 0 1 1.678.703 3.332 3.332 0 0 1 1.092 1.235 3.924 3.924 0 0 1 .39 1.82 5.83 5.83 0 0 1-.377 2.132 5.17 5.17 0 0 1-1.053 1.677 5.835 5.835 0 0 1-1.587 1.183 7.317 7.317 0 0 1-2.002.676l2.99 7.41h-2.158l-2.807-7.228h-2.965l-1.43 7.228h-2.028L315.87 0zm-1.717 8.19a5.771 5.771 0 0 0 3.744-1.065 3.535 3.535 0 0 0 1.301-2.886 2.197 2.197 0 0 0-.975-2.016 5.407 5.407 0 0 0-2.847-.61h-2.496l-1.301 6.577zM354.792 0h2.027l-3.406 17.056h-2.028zM374.342 0h2.028l3.9 10.92 1.092 3.562h.105q.156-1.273.324-2.69t.456-2.744L384.04 0h1.951l-3.406 17.056h-2.002l-3.848-10.894-1.12-3.666h-.103q-.155 1.326-.351 2.704-.194 1.379-.455 2.678l-1.819 9.178h-1.95zM2.7 91.894a23.994 23.994 0 0 0 7.74 5.85 21.966 21.966 0 0 0 9.63 2.16q6.838 0 10.8-3.285a10.63 10.63 0 0 0 3.96-8.595 11.358 11.358 0 0 0-.855-4.68 10.649 10.649 0 0 0-2.295-3.285 14.962 14.962 0 0 0-3.375-2.43q-1.935-1.034-4.094-2.026l-9-4.05a38.734 38.734 0 0 1-4.096-1.98 17.292 17.292 0 0 1-3.87-2.925 15.344 15.344 0 0 1-2.925-4.14 12.851 12.851 0 0 1-1.17-5.715 13.181 13.181 0 0 1 1.305-5.895 14.077 14.077 0 0 1 3.6-4.59 16.744 16.744 0 0 1 5.49-3.015 21.361 21.361 0 0 1 6.885-1.08 20.976 20.976 0 0 1 9.586 2.115 24.414 24.414 0 0 1 6.884 4.996l-2.34 2.79a20.133 20.133 0 0 0-6.12-4.455 18.478 18.478 0 0 0-8.01-1.665q-5.94 0-9.54 2.88a9.398 9.398 0 0 0-3.6 7.74 9.023 9.023 0 0 0 .99 4.41 10.959 10.959 0 0 0 2.52 3.105 17.933 17.933 0 0 0 3.33 2.25q1.799.945 3.42 1.665l9 3.96a39.633 39.633 0 0 1 4.77 2.43 18.73 18.73 0 0 1 3.96 3.15 13.984 13.984 0 0 1 2.745 4.275 15.249 15.249 0 0 1 1.035 5.895 14.957 14.957 0 0 1-1.35 6.345 14.61 14.61 0 0 1-3.826 5.04 18.33 18.33 0 0 1-5.984 3.33 23.84 23.84 0 0 1-7.83 1.215 25.808 25.808 0 0 1-11.52-2.475A27.396 27.396 0 0 1 0 94.773zM58.5 59.403h4.32l7.74 27.99q.809 2.97 1.53 5.805t1.44 5.715h.36q.719-2.879 1.53-5.715t1.62-5.805l7.828-27.99h4.77l7.83 27.99q.81 2.97 1.62 5.805t1.62 5.715h.36q.718-2.879 1.53-5.715.81-2.835 1.53-5.805l7.65-27.99h4.052l-12.42 43.2h-5.22l-7.56-26.82q-.992-3.15-1.665-6.165-.675-3.014-1.665-6.164h-.36q-.72 3.151-1.574 6.255-.857 3.104-1.846 6.254l-7.47 26.64h-4.77zM141.93 48.963a3.558 3.558 0 0 1-2.564-.99 3.33 3.33 0 0 1-1.036-2.52 3.411 3.411 0 0 1 1.035-2.655 3.953 3.953 0 0 1 5.13 0 3.418 3.418 0 0 1 1.035 2.655 3.336 3.336 0 0 1-1.036 2.52 3.562 3.562 0 0 1-2.564.99zm-2.07 10.44h3.96v43.2h-3.96zM175.049 62.824h-6.75v-3.06l6.84-.36.54-12.51h3.42v12.51h12.51v3.42H179.1v28.17a20.082 20.082 0 0 0 .315 3.735 7.691 7.691 0 0 0 1.125 2.88 5.415 5.415 0 0 0 2.205 1.89 8.405 8.405 0 0 0 3.645.674 10.482 10.482 0 0 0 2.745-.404 17.118 17.118 0 0 0 2.655-.945l1.08 3.24a30.367 30.367 0 0 1-3.78 1.17 14.35 14.35 0 0 1-3.24.45 12.577 12.577 0 0 1-5.22-.946 8.344 8.344 0 0 1-3.33-2.654 10.338 10.338 0 0 1-1.755-4.14 26.543 26.543 0 0 1-.495-5.31zM209.879 100.443l25.56-37.62h-22.77v-3.42h27.9v2.07l-25.47 37.62h26.37v3.51h-31.59zM261.178 81.094a27.202 27.202 0 0 1 1.575-9.54 21.862 21.862 0 0 1 4.23-7.156 18.923 18.923 0 0 1 6.03-4.5 16.332 16.332 0 0 1 6.975-1.574q7.74 0 12.15 5.22 4.408 5.22 4.41 14.76v1.62a7.443 7.443 0 0 1-.18 1.62h-31.14a25.025 25.025 0 0 0 1.26 7.515 17.761 17.761 0 0 0 3.285 5.94 14.966 14.966 0 0 0 5.084 3.87 15.467 15.467 0 0 0 6.66 1.395 18.397 18.397 0 0 0 6.345-1.035 20.716 20.716 0 0 0 5.265-2.835l1.62 3.06a53.185 53.185 0 0 1-5.715 2.88 22.002 22.002 0 0 1-15.66-.18 18.053 18.053 0 0 1-6.346-4.455 21.521 21.521 0 0 1-4.274-7.11 26.819 26.819 0 0 1-1.574-9.495zm31.59-2.61q0-8.37-3.42-12.555a11.342 11.342 0 0 0-9.27-4.185 12.472 12.472 0 0 0-5.31 1.17 14.692 14.692 0 0 0-4.545 3.33 17.532 17.532 0 0 0-3.33 5.265 23.503 23.503 0 0 0-1.664 6.975zM321.837 59.403h3.42l.36 8.01h.27a21.114 21.114 0 0 1 5.265-6.57 10.79 10.79 0 0 1 6.976-2.52 12.735 12.735 0 0 1 2.25.18 7.785 7.785 0 0 1 2.068.72l-.898 3.6a8.877 8.877 0 0 0-1.89-.585 13.021 13.021 0 0 0-2.07-.135 10.09 10.09 0 0 0-6.075 2.475q-3.196 2.477-5.715 8.595v29.43h-3.96zM363.956 37.894h3.96v59.49a3.37 3.37 0 0 0 .54 2.115 1.66 1.66 0 0 0 1.35.675h.585a4.871 4.871 0 0 0 1.035-.18l.72 3.24c-.42.12-.84.225-1.26.315a7.94 7.94 0 0 1-1.62.135q-5.311 0-5.31-6.84zM396.445 91.804q0-7.11 6.75-10.89t21.15-5.4a24.73 24.73 0 0 0-.315-4.906 12.824 12.824 0 0 0-1.53-4.41 8.814 8.814 0 0 0-3.15-3.15 9.935 9.935 0 0 0-5.174-1.214 18.438 18.438 0 0 0-8.01 1.71 34.24 34.24 0 0 0-5.76 3.33l-1.8-2.97q1.168-.81 2.834-1.8a26.372 26.372 0 0 1 3.69-1.8 32.52 32.52 0 0 1 4.455-1.395 21.47 21.47 0 0 1 5.04-.585 14.425 14.425 0 0 1 6.48 1.304 11.405 11.405 0 0 1 4.23 3.556 14.217 14.217 0 0 1 2.295 5.265 29.835 29.835 0 0 1 .675 6.525v27.63h-3.33l-.45-5.58h-.18a47.864 47.864 0 0 1-7.155 4.635 17.161 17.161 0 0 1-8.145 2.025 15.87 15.87 0 0 1-4.86-.72 12.005 12.005 0 0 1-4.005-2.16 9.767 9.767 0 0 1-2.745-3.69 13.08 13.08 0 0 1-.99-5.31zm4.14-.18q0 4.68 2.7 6.66a10.505 10.505 0 0 0 6.39 1.98 15.24 15.24 0 0 0 7.2-1.8 42.74 42.74 0 0 0 7.47-5.22v-14.67a88.968 88.968 0 0 0-11.204 1.98 29.344 29.344 0 0 0-7.335 2.79 10.707 10.707 0 0 0-4.005 3.69 8.898 8.898 0 0 0-1.215 4.59zM457.375 59.403h3.42l.36 6.66h.27a39.325 39.325 0 0 1 6.84-5.535 14.743 14.743 0 0 1 8.01-2.205q6.75 0 9.9 4.05t3.15 12.51v27.72h-3.961v-27.18q0-6.928-2.295-10.214-2.294-3.285-7.605-3.286a12.707 12.707 0 0 0-7.02 2.026 42.775 42.775 0 0 0-7.11 6.075v32.58h-3.96zM515.244 81.094a27.625 27.625 0 0 1 1.53-9.45 21.78 21.78 0 0 1 4.185-7.2 18.326 18.326 0 0 1 6.12-4.545 17.538 17.538 0 0 1 7.335-1.575 15.856 15.856 0 0 1 6.886 1.395 34.297 34.297 0 0 1 6.165 3.914l-.18-7.92v-17.82h3.96v64.71h-3.42l-.36-5.58h-.27a28.828 28.828 0 0 1-6.165 4.636 15.637 15.637 0 0 1-7.875 2.024 16.145 16.145 0 0 1-13.05-5.805q-4.86-5.805-4.86-16.784zm4.23 0a30.076 30.076 0 0 0 .946 7.83 18.043 18.043 0 0 0 2.744 5.985 12.52 12.52 0 0 0 10.53 5.264 13.858 13.858 0 0 0 6.885-1.844 31.438 31.438 0 0 0 6.705-5.265v-25.65a23.703 23.703 0 0 0-6.435-4.32 15.856 15.856 0 0 0-6.165-1.26 12.639 12.639 0 0 0-6.03 1.484 15.165 15.165 0 0 0-4.814 4.05 19.706 19.706 0 0 0-3.195 6.12 24.18 24.18 0 0 0-1.17 7.606z" fill="#fff"/></svg>