<svg xmlns="http://www.w3.org/2000/svg" width="84.66mm" height="19.62mm" viewBox="0 0 239.98 55.62"><defs><style>.a{fill:#be1902;}.b{fill:#fff;}</style></defs><title>partner</title><path class="a" d="M175.49,45.55h-9.23V10h9.23ZM153.63,10l-5.95,23.86-7-23.86h-8.94l-7,23.86-6-23.86h-9l9.82,35.59h9.54l7-24.4,7,24.4h9.54l10-35.59ZM109.07,35.5c0-6.82-3.61-9.11-11.53-11.69-3.75-1.21-7.21-2.15-7.21-5,0-2.54,2.59-3.39,4.5-3.39,1.64,0,4.72.34,5,4.12h8.74c-.15-7.21-6-10.34-13.55-10.34-4.67,0-8.53,1.33-11,3.75a9.47,9.47,0,0,0-2.73,6.67c0,6.63,4.42,9.28,9.43,10.8C96.31,32,100,33.06,100,36.16c0,2.06-1.63,4.12-4.87,4.12-4.11,0-5.6-2.45-5.7-4.87h-8.8c0,8.2,6.91,11.2,14.54,11.2,9.75,0,13.88-5.55,13.88-11.14m99.13,0c0-7.85-5.71-9.92-12.61-12-3.33-1-6.31-1.86-6.31-4.75,0-2.54,2.59-3.39,4.5-3.39,1.65,0,4.72.34,5,4.12h8.74c-.15-7.21-6-10.34-13.56-10.34-4.67,0-8.55,1.33-11,3.75a9.5,9.5,0,0,0-2.73,6.67c0,6.63,4.42,9.28,9.43,10.8C195.26,32,199,33.07,199,36.17c0,2.06-1.63,4.12-4.87,4.12-4.12,0-5.62-2.45-5.71-4.87H179.6c0,8.2,6.91,11.2,14.55,11.2,9.75,0,14-5.55,14-11.14m31.8,0c0-7.85-5.74-9.92-12.64-12-3.34-1-6.3-1.86-6.3-4.75,0-2.54,2.57-3.39,4.5-3.39,1.63,0,4.72.34,5,4.12h8.76c-.15-7.21-6-10.34-13.57-10.34-4.67,0-8.54,1.33-11,3.75A9.52,9.52,0,0,0,212,19.5c0,6.63,4.42,9.28,9.43,10.8C227,32,230.77,33,230.77,36.13c0,2.06-1.63,4.12-4.86,4.12-4.12,0-5.61-2.45-5.71-4.87h-8.85c0,8.2,6.91,11.2,14.56,11.2C235.67,46.6,240,41,240,35.45" transform="translate(-0.01 0)"/><polygon class="a" points="60.85 55.62 0 55.62 44.61 0 74.55 0 60.85 55.62"/><polygon class="b" points="51.55 22.67 51.55 10.7 41.29 10.7 41.29 22.67 29.31 22.67 29.31 32.94 41.28 32.94 41.28 44.92 51.54 44.92 51.54 32.94 51.55 32.94 63.52 32.94 63.52 22.67 51.55 22.67"/></svg>